<svg width="143" height="114" viewBox="0 0 143 114" fill="none" xmlns="http://www.w3.org/2000/svg">
<path d="M143 29.6689V58.1134H82.9256C78.7834 58.1134 74.9462 56.7215 72.1508 54.2162C68.7964 51.23 66.1536 46.852 64.3493 41.2086C63.9681 40.0698 63.6632 38.8804 63.4345 37.9947C63.0025 36.2233 59.2923 29.0362 50.5251 29.0362H0.717285V0.566406H37.1075C37.2091 0.566406 46.1034 0.920697 50.5759 11.2204C50.7792 11.7519 50.9825 12.3339 51.2112 13.0678C52.0244 15.9275 55.2518 25.3921 62.5196 28.3529C63.5107 29.1881 69.7621 29.6689 79.927 29.6689H143Z" fill="#202020"/>
<path d="M143 84.9889V113.433H110.218C105.847 113.433 101.629 111.738 98.6811 108.802C95.6825 105.841 93.3192 101.717 91.642 96.5287C91.2862 95.3899 90.9812 94.2764 90.7525 93.3148C90.2951 91.5433 86.6104 84.3563 77.8432 84.3563H0.717285V55.8865H64.4255C64.5018 55.8865 73.4214 56.2408 77.8686 66.5405C78.0973 67.0719 78.3006 67.654 78.5039 68.3879C79.3171 71.2222 82.5444 80.7121 89.8123 83.673C90.8288 84.5081 97.0802 84.9889 107.22 84.9889H143Z" fill="#202020"/>
</svg>
