<svg width="143" height="114" viewBox="0 0 143 114" fill="none" xmlns="http://www.w3.org/2000/svg">
<path d="M143 29.5502V57.9947H82.9256C78.7834 57.9947 74.9462 56.6029 72.1508 54.0975C68.7964 51.1114 66.1536 46.7333 64.3493 41.09C63.9681 39.9512 63.6632 38.7618 63.4345 37.8761C63.0025 36.1046 59.2923 28.9176 50.5251 28.9176H0.717285V0.447754H37.1075C37.2091 0.447754 46.1034 0.802045 50.5759 11.1018C50.7792 11.6332 50.9825 12.2153 51.2112 12.9492C52.0244 15.8088 55.2518 25.2734 62.5196 28.2343C63.5107 29.0694 69.7621 29.5502 79.927 29.5502H143Z" fill="#9FE870"/>
<path d="M143 84.8703V113.315H110.218C105.847 113.315 101.629 111.619 98.6811 108.684C95.6825 105.723 93.3192 101.598 91.642 96.41C91.2862 95.2713 90.9812 94.1578 90.7525 93.1961C90.2951 91.4247 86.6104 84.2376 77.8432 84.2376H0.717285V55.7678H64.4255C64.5018 55.7678 73.4214 56.1221 77.8686 66.4219C78.0973 66.9533 78.3006 67.5353 78.5039 68.2692C79.3171 71.1036 82.5444 80.5935 89.8123 83.5544C90.8288 84.3895 97.0802 84.8703 107.22 84.8703H143Z" fill="#9FE870"/>
</svg>
