<svg width="233" height="11" viewBox="0 0 233 11" fill="none" xmlns="http://www.w3.org/2000/svg">
<path d="M85 0C81.8 0 80.3 2.5 78.9 4.6C77.7 6.6 76.6 8.3 74.5 8.3C72.4 8.3 71.4 6.6 70.1 4.6C68.7 2.4 67.2 0 64 0C60.8 0 59.3 2.5 57.9 4.6C56.7 6.6 55.6 8.3 53.5 8.3C51.4 8.3 50.4 6.6 49.1 4.6C47.7 2.4 46.2 0 43 0C39.8 0 38.3 2.5 36.9 4.6C35.7 6.6 34.6 8.3 32.5 8.3C30.5 8.3 29.4 6.6 28.1 4.6C26.7 2.4 25.2 0 22 0C18.8 0 17.3 2.5 15.9 4.6C14.7 6.6 13.6 8.3 11.5 8.3C9.5 8.3 8.4 6.6 7.1 4.6C5.7 2.4 4.2 0 1 0C0.4 0 0 0.4 0 1C0 1.6 0.4 2 1 2C3 2 4.1 3.7 5.4 5.7C6.8 7.9 8.3 10.3 11.5 10.3C14.7 10.3 16.2 7.8 17.6 5.7C18.8 3.7 19.9 2 22 2C24.1 2 25.1 3.7 26.4 5.7C27.8 7.9 29.3 10.3 32.5 10.3C35.7 10.3 37.2 7.8 38.6 5.7C39.8 3.7 40.9 2 43 2C45.1 2 46.1 3.7 47.4 5.7C48.8 7.9 50.3 10.3 53.5 10.3C56.7 10.3 58.2 7.8 59.6 5.7C60.8 3.7 61.9 2 64 2C66.1 2 67.1 3.7 68.4 5.7C69.8 7.9 71.3 10.3 74.5 10.3C77.7 10.3 79.2 7.8 80.6 5.7C81.8 3.7 82.9 2 85 2V1V0Z" fill="#9FE870"/>
<path d="M169 0C165.8 0 164.3 2.5 162.9 4.6C161.7 6.6 160.6 8.3 158.5 8.3C156.4 8.3 155.4 6.6 154.1 4.6C152.7 2.4 151.2 0 148 0C144.8 0 143.3 2.5 141.9 4.6C140.7 6.6 139.6 8.3 137.5 8.3C135.4 8.3 134.4 6.6 133.1 4.6C131.7 2.4 130.2 0 127 0C123.8 0 122.3 2.5 120.9 4.6C119.7 6.6 118.6 8.3 116.5 8.3C114.5 8.3 113.4 6.6 112.1 4.6C110.7 2.4 109.2 0 106 0C102.8 0 101.3 2.5 99.9 4.6C98.7 6.6 97.6 8.3 95.5 8.3C93.5 8.3 92.4 6.6 91.1 4.6C89.7 2.4 88.2 0 85 0V1V2C87 2 88.1 3.7 89.4 5.7C90.8 7.9 92.3 10.3 95.5 10.3C98.7 10.3 100.2 7.8 101.6 5.7C102.8 3.7 103.9 2 106 2C108.1 2 109.1 3.7 110.4 5.7C111.8 7.9 113.3 10.3 116.5 10.3C119.7 10.3 121.2 7.8 122.6 5.7C123.8 3.7 124.9 2 127 2C129.1 2 130.1 3.7 131.4 5.7C132.8 7.9 134.3 10.3 137.5 10.3C140.7 10.3 142.2 7.8 143.6 5.7C144.8 3.7 145.9 2 148 2C150.1 2 151.1 3.7 152.4 5.7C153.8 7.9 155.3 10.3 158.5 10.3C161.7 10.3 163.2 7.8 164.6 5.7C165.8 3.7 166.9 2 169 2C169 2 169 1.6 169 1C169 0.4 169 0 169 0Z" fill="#9FE870"/>
<path d="M232 0C228.8 0 227.3 2.5 225.9 4.6C224.7 6.6 223.6 8.3 221.5 8.3C219.4 8.3 218.4 6.6 217.1 4.6C215.7 2.4 214.2 0 211 0C207.8 0 206.3 2.5 204.9 4.6C203.7 6.6 202.6 8.3 200.5 8.3C198.5 8.3 197.4 6.6 196.1 4.6C194.7 2.4 193.2 0 190 0C186.8 0 185.3 2.5 183.9 4.6C182.7 6.6 181.6 8.3 179.5 8.3C177.5 8.3 176.4 6.6 175.1 4.6C173.7 2.4 172.2 0 169 0V1V2C171 2 172.1 3.7 173.4 5.7C174.8 7.9 176.3 10.3 179.5 10.3C182.7 10.3 184.2 7.8 185.6 5.7C186.8 3.7 187.9 2 190 2C192.1 2 193.1 3.7 194.4 5.7C195.8 7.9 197.3 10.3 200.5 10.3C203.7 10.3 205.2 7.8 206.6 5.7C207.8 3.7 208.9 2 211 2C213.1 2 214.1 3.7 215.4 5.7C216.8 7.9 218.3 10.3 221.5 10.3C224.7 10.3 226.2 7.8 227.6 5.7C228.8 3.7 229.9 2 232 2C232 2 233 2 233 1.00063C233 0 232 0 232 0Z" fill="#9FE870"/>
</svg>
