<svg width="609" height="82" viewBox="0 0 609 82" fill="none" xmlns="http://www.w3.org/2000/svg">
<g clip-path="url(#clip0_159_1089)">
<path d="M98.2891 21.0008V40.6503H56.7896C53.9282 40.6503 51.2775 39.6888 49.3464 37.9581C47.0292 35.8952 45.2035 32.8709 43.9571 28.9725C43.6938 28.1858 43.4831 27.3641 43.3251 26.7523C43.0267 25.5285 40.4637 20.5637 34.4073 20.5637H0V0.896729H25.1384C25.2086 0.896729 31.3528 1.14147 34.4424 8.25656C34.5829 8.62367 34.7233 9.02575 34.8813 9.53273C35.4431 11.5082 37.6725 18.0463 42.6932 20.0917C43.3778 20.6686 47.6963 21.0008 54.7182 21.0008H98.2891Z" fill="#FAFAFA"/>
<path d="M98.2891 59.2159V78.8654H75.6435C72.624 78.8654 69.7099 77.6941 67.6736 75.6662C65.6021 73.6208 63.9695 70.7713 62.8109 67.1875C62.5652 66.4009 62.3545 65.6317 62.1965 64.9674C61.8805 63.7436 59.3351 58.7788 53.2787 58.7788H0V39.1118H44.0098C44.0624 39.1118 50.2242 39.3566 53.2962 46.4716C53.4542 46.8388 53.5947 47.2408 53.7351 47.7478C54.2969 49.7058 56.5263 56.2614 61.547 58.3068C62.2492 58.8837 66.5676 59.2159 73.572 59.2159H98.2891Z" fill="#FAFAFA"/>
<path d="M119.899 1.14136H130.485V67.7644H173.424V78.8653H119.899V1.14136Z" fill="#FAFAFA"/>
<path d="M182.903 2.26025H195.736V15.0219H182.903V2.26025ZM184.027 23.3608H194.401V78.8829H184.027V23.3608Z" fill="#FAFAFA"/>
<path d="M219.487 23.3606V28.6925C223.946 23.8151 230.196 21.1404 237.885 21.1404C253.947 21.1404 262.637 32.9056 262.637 54.4606V78.8827H252.262V54.4432C252.262 35.1258 248.909 29.4617 237.095 29.4617C225.158 29.4617 220.032 35.3531 219.47 49.4434V78.8652H209.095V23.3606H219.487Z" fill="#FAFAFA"/>
<path d="M276.031 1.14136H286.406V52.8874L315.178 23.3432H328.555L301.451 51.1043H310.491L332.786 78.8653H319.409L299.116 53.5517L295.429 57.3278H286.406V78.8653H276.031V1.14136Z" fill="#FAFAFA"/>
<path d="M331.68 23.3608H342.493L357.433 72.3273L371.266 23.3608H385.766L400.6 72.3273L415.539 23.3608H426.352L409.395 78.883H391.893L379.06 33.0283L365.016 78.883H348.62L331.68 23.3608Z" fill="#FAFAFA"/>
<path d="M445.751 79.8792C435.27 79.8792 428.582 72.7641 428.582 62.4498C428.582 43.1325 451.772 33.6923 474.418 42.9052C471.96 34.3566 465.605 29.4617 455.458 29.4617C447.313 29.4617 442.292 32.6784 440.291 39.4613L429.477 38.3599C432.707 27.696 443.082 21.1404 456.687 21.1404C474.751 21.1404 485.793 32.5735 485.793 51.1216V78.7778L475.418 78.8827V66.8902C464.604 75.3339 454.23 79.8792 445.751 79.8792ZM438.957 61.7855C438.957 66.6629 442.187 69.7747 448.331 69.7747C456.02 69.7747 465.623 65.0022 475.436 56.1214V52.5726C459.812 44.3387 438.957 49.2336 438.957 61.7855Z" fill="#FAFAFA"/>
<path d="M489.146 23.3608H499.854L517.146 73.4461L534.437 23.3608H545.146L525.941 78.883H508.316L489.146 23.3608Z" fill="#FAFAFA"/>
<path d="M577.692 21.1404C595.861 21.1404 608.132 33.2378 608.132 53.1145V53.674H558.628C559.189 67.1175 565.088 72.7815 579.149 72.7815C588.857 72.7815 593.878 70.0019 595.879 62.782L606.693 63.7784C603.34 75.1066 593.983 81.1029 579.711 81.1029C559.646 81.1029 547.375 69.1104 547.375 51.1216C547.357 33.2378 559.505 21.1404 577.692 21.1404ZM596.423 45.003C594.755 33.9021 588.839 29.4617 577.692 29.4617C566.211 29.4617 560.295 34.1293 558.838 45.003H596.423Z" fill="#FAFAFA"/>
</g>
<defs>
<clipPath id="clip0_159_1089">
<rect width="608.132" height="80.2064" fill="white" transform="translate(0 0.896729)"/>
</clipPath>
</defs>
</svg>
