<svg width="203" height="203" viewBox="0 0 203 203" fill="none" xmlns="http://www.w3.org/2000/svg">
<rect x="30.2085" y="0.359375" width="174.933" height="174.933" rx="21.8667" transform="rotate(9.82514 30.2085 0.359375)" fill="#9FE870"/>
<path d="M67.7087 41.8211C67.5222 42.2573 67.3235 42.7284 67.1126 43.2344C66.9017 43.7403 66.7048 44.2364 66.522 44.7225C66.3392 45.2087 66.1816 45.656 66.0492 46.0646L64.3435 45.7692L64.252 45.55C64.4323 45.1497 64.6477 44.7246 64.8982 44.2749C65.1507 43.8131 65.4212 43.3545 65.7097 42.8989C65.9982 42.4434 66.2755 42.0168 66.5417 41.619L67.7087 41.8211ZM64.3871 41.2459C64.2006 41.6821 64.0019 42.1532 63.791 42.6591C63.58 43.1651 63.3832 43.6611 63.2004 44.1473C63.0175 44.6334 62.8599 45.0808 62.7275 45.4894L61.0397 45.1971L60.9662 44.9809C61.1465 44.5806 61.3619 44.1556 61.6124 43.7058C61.865 43.2441 62.1295 42.7844 62.406 42.3268C62.6945 41.8713 62.9718 41.4446 63.238 41.0469L64.3871 41.2459ZM69.212 55.2858L67.5063 54.9904L69.6829 42.4219L71.3886 42.7173L70.4558 48.1038L77.4582 49.3165L78.3911 43.93L80.0968 44.2254L77.9201 56.7939L76.2144 56.4985L77.1784 50.9325L70.1759 49.7198L69.212 55.2858ZM88.4054 56.6125C86.4275 57.6754 84.6302 58.1224 83.2656 57.8861C81.5778 57.5938 80.6995 56.2581 80.9887 54.5883C81.5298 51.4641 85.5287 50.5847 88.9155 52.7062C88.7599 51.2553 87.8733 50.288 86.2394 50.0051C84.9287 49.7781 84.0305 50.1588 83.5177 51.1981L81.8071 50.7169C82.6263 49.0834 84.4796 48.3133 86.6701 48.6926C89.5788 49.1964 91.0361 51.3536 90.5168 54.352L89.7425 58.8228L88.0696 58.5516L88.4054 56.6125ZM88.8066 54.2963C86.523 52.5323 83.0286 52.7408 82.6772 54.7697C82.5404 55.5598 82.974 56.1527 83.9615 56.3237C85.2004 56.5382 86.8783 56.0336 88.707 54.8708L88.8066 54.2963ZM93.4658 59.4861L91.796 59.1969L93.3507 50.2195L95.0205 50.5086L94.7562 52.0348C95.768 51.2114 97.1212 50.8725 98.6295 51.1336L98.3962 52.4803C95.9544 52.0574 94.7029 52.8763 94.1934 55.2847L93.4658 59.4861ZM98.7524 55.7783C99.253 52.8875 101.567 51.2725 104.332 51.7514C105.75 51.997 106.738 52.7043 107.342 53.6967L108.142 49.0823L109.811 49.3715L107.635 61.9399L106.144 61.6818L106.142 60.6273C105.239 61.3586 104.071 61.6927 102.635 61.4439C99.8699 60.9651 98.2517 58.669 98.7524 55.7783ZM100.548 56.0892C100.122 58.5491 100.875 59.7522 102.958 60.1129C105.113 60.486 106.236 59.5524 106.717 57.3057L106.767 57.0184C107.069 54.7405 106.325 53.4836 104.171 53.1104C102.088 52.7497 100.974 53.6294 100.548 56.0892ZM116.205 63.4242L115.031 53.974L116.772 54.2757L117.807 62.6105L121.405 55.0779L123.739 55.4821L124.755 63.8138L128.533 56.3124L130.274 56.614L125.99 65.1188L123.172 64.6306L122.391 56.8576L118.844 63.8812L116.205 63.4242ZM134.288 66.9257C131.362 66.4189 129.722 64.1377 130.226 61.229C130.727 58.3382 133.023 56.7201 135.949 57.2269C138.876 57.7338 140.512 60.0329 140.012 62.9237C139.511 65.8144 137.215 67.4326 134.288 66.9257ZM135.716 58.5735C133.544 58.1973 132.448 59.0801 132.022 61.5399C131.596 63.9998 132.331 65.1997 134.504 65.576C136.676 65.9522 137.79 65.0725 138.216 62.6127C138.642 60.1529 137.889 58.9498 135.716 58.5735ZM142.965 68.0584L141.295 67.7693L142.85 58.7918L144.519 59.081L144.255 60.6071C145.267 59.7837 146.62 59.4448 148.128 59.706L147.895 61.0526C145.453 60.6297 144.202 61.4486 143.692 63.857L142.965 68.0584ZM148.098 68.9475L150.275 56.379L151.945 56.6682L150.496 65.0352L155.955 61.0614L158.11 61.4345L152.969 65.1677L154.424 65.4195L157.237 70.5302L155.083 70.157L152.524 65.4974L151.825 66.0052L150.371 65.7534L149.768 69.2366L148.098 68.9475ZM53.6222 74.9134L52.1319 74.6553L54.3086 62.0868L55.9784 62.376L55.1792 66.9905C56.0826 66.2592 57.2501 65.9251 58.6685 66.1707C61.4336 66.6496 63.0697 68.9487 62.5691 71.8395C62.0684 74.7302 59.7724 76.3484 57.0073 75.8695C55.571 75.6208 54.5838 74.9135 53.979 73.9211L53.6222 74.9134ZM54.5542 70.5994C54.2522 72.8773 54.9962 74.1342 57.1508 74.5074C59.2336 74.8681 60.3476 73.9884 60.7736 71.5285C61.1996 69.0687 60.4463 67.8656 58.3635 67.5049C56.2089 67.1318 55.0855 68.0653 54.604 70.3121L54.5542 70.5994ZM64.1908 72.1203C64.6914 69.2296 66.9874 67.6114 69.9141 68.1183C72.8407 68.6251 74.4768 70.9242 73.9202 74.1382L73.9047 74.228L65.9327 72.8473C65.6462 75.0354 66.4392 76.1159 68.7016 76.5077C70.2637 76.7783 71.1494 76.4693 71.6747 75.3582L73.3883 75.8214C72.5325 77.5596 70.8564 78.2679 68.5581 77.8699C65.3262 77.3102 63.687 75.029 64.1908 72.1203ZM66.2111 71.4531L72.262 72.501C72.3036 70.6588 71.4763 69.7758 69.6809 69.4649C67.8315 69.1446 66.7493 69.7339 66.2111 71.4531ZM82.6875 77.9497C80.7095 79.0127 78.9122 79.4596 77.5477 79.2233C75.8599 78.931 74.9816 77.5953 75.2708 75.9255C75.8118 72.8014 79.8108 71.922 83.1975 74.0434C83.042 72.5925 82.1553 71.6252 80.5214 71.3423C79.2107 71.1153 78.3126 71.4961 77.7997 72.5353L76.0892 72.0542C76.9084 70.4207 78.7616 69.6505 80.9522 70.0299C83.8609 70.5336 85.3181 72.6908 84.7988 75.6893L84.0246 80.1601L82.3517 79.8888L82.6875 77.9497ZM83.0886 75.6335C80.805 73.8695 77.3106 74.0781 76.9592 76.107C76.8224 76.897 77.2561 77.4899 78.2436 77.6609C79.4825 77.8755 81.1603 77.3708 82.9891 76.2081L83.0886 75.6335ZM86.9413 72.8794L87.1839 71.479L88.7998 71.7588L89.1419 69.7838L90.8117 70.0729L90.4696 72.048L92.8038 72.4522L92.5612 73.8527L90.2271 73.4485L89.3036 78.7811C89.1419 79.7148 89.4005 80.0369 90.4957 80.2266C90.4957 80.2266 90.7112 80.2639 91.1193 80.1497L90.8768 81.5502C90.4327 81.6582 90.1814 81.6147 90.1814 81.6147C88.1525 81.2633 87.3726 80.0001 87.6618 78.3303L88.5573 73.1593L86.9413 72.8794ZM93.1183 79.2383L94.8379 79.2402C94.8301 80.4594 95.3418 81.0289 96.6884 81.2621C98.1428 81.514 99.119 81.1097 99.2744 80.212C99.6693 77.9317 93.6187 78.2708 94.1567 75.1646C94.4272 73.6026 96.1078 72.6546 98.047 72.9904C100.022 73.3324 101.531 74.8698 101.458 76.4661L99.7572 76.3565C99.7587 75.1732 99.2501 74.5858 98.0113 74.3712C96.8262 74.166 95.9944 74.4843 95.8731 75.1845C95.5373 77.1236 101.557 76.964 100.963 80.3934C100.655 82.171 98.8995 83.1245 96.6551 82.7358C94.4646 82.3564 93.0118 80.9213 93.1183 79.2383ZM107.93 76.5142L108.172 75.1138L109.788 75.3936L110.13 73.4186L111.8 73.7077L111.458 75.6828L113.792 76.087L113.55 77.4875L111.215 77.0833L110.292 82.4159C110.13 83.3496 110.389 83.6717 111.484 83.8614C111.484 83.8614 111.7 83.8987 112.108 83.7845L111.865 85.185C111.421 85.293 111.17 85.2495 111.17 85.2495C109.141 84.8981 108.361 83.6349 108.65 81.9651L109.546 76.7941L107.93 76.5142ZM121.736 84.7122C119.758 85.7752 117.961 86.2221 116.596 85.9858C114.908 85.6935 114.03 84.3578 114.319 82.688C114.86 79.5639 118.859 78.6845 122.246 80.8059C122.09 79.355 121.204 78.3877 119.57 78.1048C118.259 77.8778 117.361 78.2586 116.848 79.2978L115.138 78.8167C115.957 77.1832 117.81 76.413 120.001 76.7924C122.909 77.2961 124.367 79.4533 123.847 82.4518L123.073 86.9226L121.4 86.6513L121.736 84.7122ZM122.137 82.396C119.854 80.632 116.359 80.8406 116.008 82.8695C115.871 83.6595 116.305 84.2524 117.292 84.4234C118.531 84.638 120.209 84.1333 122.038 82.9706L122.137 82.396ZM125.486 87.3589L127.662 74.7904L129.332 75.0796L127.155 87.648L125.486 87.3589ZM130.365 83.5804C130.865 80.6897 133.161 79.0715 136.088 79.5784C139.015 80.0852 140.651 82.3844 140.094 85.5983L140.079 85.6881L132.107 84.3075C131.82 86.4956 132.613 87.5761 134.875 87.9679C136.437 88.2384 137.323 87.9294 137.849 86.8183L139.562 87.2815C138.706 89.0197 137.03 89.728 134.732 89.33C131.5 88.7703 129.861 86.4891 130.365 83.5804ZM132.385 82.9132L138.436 83.9611C138.477 82.1189 137.65 81.2359 135.855 80.925C134.005 80.6047 132.923 81.194 132.385 82.9132ZM142.988 81.1432L144.658 81.4324L144.509 82.2942C145.364 81.6286 146.444 81.3718 147.683 81.5864C150.268 82.0341 151.339 84.1799 150.736 87.6632L150.052 91.6133L148.382 91.3241L149.066 87.374C149.607 84.2498 149.227 83.2408 147.324 82.9112C145.403 82.5785 144.412 83.3871 143.927 85.6518L143.103 90.4099L141.433 90.1207L142.988 81.1432ZM153.08 84.3335L153.323 82.933L154.939 83.2128L155.281 81.2378L156.95 81.527L156.608 83.502L158.943 83.9063L158.7 85.3067L156.366 84.9025L155.442 90.2351C155.281 91.1688 155.539 91.491 156.635 91.6807C156.635 91.6807 156.85 91.718 157.258 91.6037L157.016 93.0042C156.572 93.1122 156.32 93.0687 156.32 93.0687C154.291 92.7173 153.511 91.4542 153.801 89.7844L154.696 84.6133L153.08 84.3335ZM50.6149 96.7201L49.4405 87.27L51.1822 87.5716L52.2168 95.9064L55.8145 88.3738L58.1487 88.7781L59.1654 97.1098L62.9427 89.6083L64.6843 89.9099L60.4004 98.4147L57.5815 97.9266L56.8009 90.1536L53.2543 97.1772L50.6149 96.7201ZM66.6595 86.5533L68.3293 86.8425L67.5582 91.2953C68.4132 90.6297 69.4933 90.3729 70.7322 90.5874C73.3177 91.0352 74.3886 93.181 73.7854 96.6642L73.1013 100.614L71.4315 100.325L72.1156 96.375C72.6566 93.2509 72.2765 92.2419 70.3733 91.9123C68.4521 91.5796 67.4614 92.3881 66.9767 94.6529L66.1527 99.4109L64.4829 99.1218L66.6595 86.5533ZM75.9456 96.4835C76.4462 93.5928 78.7422 91.9746 81.6689 92.4815C84.5955 92.9883 86.2317 95.2874 85.6751 98.5014L85.6595 98.5912L77.6875 97.2105C77.401 99.3986 78.1941 100.479 80.4564 100.871C82.0185 101.141 82.9042 100.833 83.4295 99.7214L85.1431 100.185C84.2873 101.923 82.6112 102.631 80.313 102.233C77.0811 101.673 75.4418 99.3922 75.9456 96.4835ZM77.966 95.8163L84.0168 96.8642C84.0584 95.022 83.2312 94.139 81.4357 93.8281C79.5863 93.5078 78.5041 94.0971 77.966 95.8163ZM88.569 94.0463L90.2388 94.3355L90.0896 95.1973C90.9446 94.5317 92.0247 94.2749 93.2636 94.4895C95.8491 94.9372 96.92 97.083 96.3167 100.566L95.6327 104.516L93.9628 104.227L94.6469 100.277C95.188 97.1529 94.8079 96.1439 92.9047 95.8143C90.9835 95.4816 89.9928 96.2902 89.5081 98.5549L88.6841 103.313L87.0143 103.024L88.569 94.0463ZM103.501 98.0747L103.743 96.6742L105.359 96.954L105.701 94.979L107.371 95.2682L107.029 97.2432L109.363 97.6474L109.12 99.0479L106.786 98.6437L105.863 103.976C105.701 104.91 105.96 105.232 107.055 105.422C107.055 105.422 107.27 105.459 107.679 105.345L107.436 106.745C106.992 106.853 106.741 106.81 106.741 106.81C104.712 106.459 103.932 105.195 104.221 103.526L105.116 98.3545L103.501 98.0747ZM117.307 106.273C115.329 107.336 113.532 107.783 112.167 107.546C110.479 107.254 109.601 105.918 109.89 104.248C110.431 101.124 114.43 100.245 117.817 102.366C117.661 100.915 116.775 99.9482 115.141 99.6652C113.83 99.4382 112.932 99.819 112.419 100.858L110.709 100.377C111.528 98.7436 113.381 97.9734 115.571 98.3528C118.48 98.8565 119.937 101.014 119.418 104.012L118.644 108.483L116.971 108.212L117.307 106.273ZM117.708 103.956C115.424 102.192 111.93 102.401 111.579 104.43C111.442 105.22 111.875 105.813 112.863 105.984C114.102 106.198 115.78 105.694 117.608 104.531L117.708 103.956ZM121.056 108.919L123.233 96.3508L124.903 96.64L122.726 109.208L121.056 108.919ZM125.935 105.141C126.436 102.25 128.732 100.632 131.659 101.139C134.585 101.646 136.221 103.945 135.665 107.159L135.649 107.248L127.677 105.868C127.391 108.056 128.184 109.136 130.446 109.528C132.008 109.799 132.894 109.49 133.419 108.379L135.133 108.842C134.277 110.58 132.601 111.288 130.303 110.89C127.071 110.331 125.432 108.05 125.935 105.141ZM127.956 104.474L134.007 105.522C134.048 103.679 133.221 102.796 131.426 102.485C129.576 102.165 128.494 102.754 127.956 104.474ZM138.559 102.704L140.229 102.993L140.079 103.855C140.934 103.189 142.015 102.932 143.253 103.147C145.839 103.595 146.91 105.74 146.307 109.224L145.622 113.174L143.953 112.884L144.637 108.934C145.178 105.81 144.798 104.801 142.895 104.472C140.973 104.139 139.983 104.948 139.498 107.212L138.674 111.97L137.004 111.681L138.559 102.704ZM148.651 105.894L148.893 104.493L150.509 104.773L150.851 102.798L152.521 103.087L152.179 105.062L154.513 105.467L154.271 106.867L151.937 106.463L151.013 111.796C150.851 112.729 151.11 113.051 152.205 113.241C152.205 113.241 152.421 113.278 152.829 113.164L152.586 114.565C152.142 114.673 151.891 114.629 151.891 114.629C149.862 114.278 149.082 113.015 149.371 111.345L150.267 106.174L148.651 105.894ZM40.9895 112.757C41.4901 109.866 43.8041 108.251 46.5691 108.73C47.9876 108.976 48.9747 109.683 49.5795 110.676L50.3787 106.061L52.0485 106.35L49.8719 118.919L48.3816 118.661L48.3793 117.606C47.4759 118.337 46.3085 118.672 44.8721 118.423C42.107 117.944 40.4888 115.648 40.9895 112.757ZM42.785 113.068C42.359 115.528 43.1123 116.731 45.195 117.092C47.3496 117.465 48.473 116.531 48.9545 114.285L49.0043 113.997C49.3063 111.719 48.5623 110.462 46.4077 110.089C44.325 109.729 43.211 110.608 42.785 113.068ZM56.7819 120.485C53.8553 119.979 52.2161 117.697 52.7198 114.789C53.2204 111.898 55.5164 110.28 58.4431 110.787C61.3698 111.293 63.0059 113.593 62.5052 116.483C62.0046 119.374 59.7086 120.992 56.7819 120.485ZM58.2099 112.133C56.0373 111.757 54.9413 112.64 54.5153 115.1C54.0893 117.559 54.8246 118.759 56.9972 119.136C59.1697 119.512 60.2838 118.632 60.7098 116.172C61.1358 113.713 60.3824 112.51 58.2099 112.133ZM64.117 116.762C64.6176 113.872 66.9136 112.254 69.8403 112.76C72.767 113.267 74.4031 115.566 73.8465 118.78L73.8309 118.87L65.8589 117.49C65.5724 119.678 66.3655 120.758 68.6278 121.15C70.1899 121.42 71.0756 121.111 71.6009 120L73.3145 120.464C72.4587 122.202 70.7826 122.91 68.4844 122.512C65.2525 121.952 63.6133 119.671 64.117 116.762ZM66.1374 116.095L72.1882 117.143C72.2298 115.301 71.4026 114.418 69.6071 114.107C67.7577 113.787 66.6755 114.376 66.1374 116.095ZM75.1597 120.783L76.8793 120.785C76.8715 122.004 77.3832 122.574 78.7298 122.807C80.1842 123.059 81.1604 122.655 81.3158 121.757C81.7107 119.477 75.6601 119.816 76.1981 116.709C76.4686 115.147 78.1492 114.199 80.0884 114.535C82.0634 114.877 83.5725 116.415 83.4995 118.011L81.7986 117.901C81.8001 116.718 81.2916 116.131 80.0527 115.916C78.8676 115.711 78.0358 116.029 77.9145 116.729C77.5787 118.668 83.5982 118.509 83.0043 121.938C82.6965 123.716 80.9409 124.669 78.6965 124.281C76.506 123.901 75.0532 122.466 75.1597 120.783ZM86.1738 115.959L87.8436 116.248L87.6943 117.11C88.5494 116.444 89.6295 116.188 90.8684 116.402C93.4539 116.85 94.5248 118.996 93.9215 122.479L93.2374 126.429L91.5676 126.14L92.2517 122.19C92.7928 119.066 92.4127 118.057 90.5095 117.727C88.5883 117.394 87.5975 118.203 87.1129 120.468L86.2889 125.226L84.619 124.936L86.1738 115.959ZM97.4218 118.832L98.0196 114.312L99.8151 114.623L98.8582 119.08L97.4218 118.832ZM101.105 119.987L101.348 118.587L102.964 118.867L103.306 116.892L104.976 117.181L104.634 119.156L106.968 119.56L106.725 120.961L104.391 120.556L103.468 125.889C103.306 126.823 103.564 127.145 104.66 127.335C104.66 127.335 104.875 127.372 105.283 127.258L105.041 128.658C104.597 128.766 104.345 128.723 104.345 128.723C102.316 128.371 101.537 127.108 101.826 125.438L102.721 120.267L101.105 119.987ZM113.534 129.944L112.36 120.494L114.102 120.796L115.136 129.13L118.734 121.598L121.068 122.002L122.085 130.334L125.862 122.832L127.604 123.134L123.32 131.639L120.501 131.151L119.72 123.378L116.174 130.401L113.534 129.944ZM131.618 133.446C128.691 132.939 127.052 130.658 127.556 127.749C128.056 124.858 130.352 123.24 133.279 123.747C136.205 124.254 137.842 126.553 137.341 129.444C136.84 132.334 134.544 133.952 131.618 133.446ZM133.046 125.093C130.873 124.717 129.777 125.6 129.351 128.06C128.925 130.52 129.66 131.72 131.833 132.096C134.005 132.472 135.119 131.592 135.545 129.133C135.971 126.673 135.218 125.47 133.046 125.093ZM140.294 134.578L138.624 134.289L140.179 125.312L141.849 125.601L141.584 127.127C142.596 126.304 143.949 125.965 145.458 126.226L145.224 127.572C142.783 127.15 141.531 127.969 141.022 130.377L140.294 134.578ZM145.427 135.467L147.604 122.899L149.274 123.188L147.825 131.555L153.284 127.581L155.439 127.954L150.299 131.688L151.753 131.939L154.567 137.05L152.412 136.677L149.853 132.017L149.155 132.525L147.7 132.273L147.097 135.757L145.427 135.467ZM70.9079 131.944L72.5777 132.233L71.8066 136.686C72.6616 136.02 73.7417 135.764 74.9806 135.978C77.5661 136.426 78.637 138.572 78.0338 142.055L77.3497 146.005L75.6799 145.716L76.364 141.766C76.905 138.642 76.5249 137.633 74.6217 137.303C72.7005 136.97 71.7098 137.779 71.2251 140.044L70.4011 144.802L68.7313 144.512L70.9079 131.944ZM87.2935 145.73C85.3156 146.793 83.5183 147.24 82.1537 147.003C80.4659 146.711 79.5876 145.375 79.8768 143.706C80.4179 140.581 84.4168 139.702 87.8036 141.824C87.648 140.373 86.7614 139.405 85.1275 139.122C83.8168 138.895 82.9186 139.276 82.4057 140.315L80.6952 139.834C81.5144 138.201 83.3677 137.431 85.5582 137.81C88.4669 138.314 89.9242 140.471 89.4049 143.469L88.6306 147.94L86.9577 147.669L87.2935 145.73ZM87.6946 143.414C85.411 141.65 81.9166 141.858 81.5653 143.887C81.4285 144.677 81.8621 145.27 82.8496 145.441C84.0885 145.656 85.7663 145.151 87.5951 143.988L87.6946 143.414ZM92.3539 148.603L90.684 148.314L92.2388 139.337L93.9086 139.626L93.6443 141.152C94.6561 140.329 96.0093 139.99 97.5175 140.251L97.2843 141.598C94.8425 141.175 93.591 141.994 93.0815 144.402L92.3539 148.603ZM97.6404 144.896C98.1411 142.005 100.455 140.39 103.22 140.869C104.639 141.114 105.626 141.822 106.231 142.814L107.03 138.2L108.699 138.489L106.523 151.057L105.033 150.799L105.03 149.745C104.127 150.476 102.959 150.81 101.523 150.561C98.758 150.082 97.1398 147.786 97.6404 144.896ZM99.4359 145.207C99.0099 147.666 99.7632 148.869 101.846 149.23C104.001 149.603 105.124 148.67 105.606 146.423L105.655 146.136C105.957 143.858 105.213 142.601 103.059 142.228C100.976 141.867 99.8619 142.747 99.4359 145.207ZM109.132 151.509L109.505 149.355L111.66 149.728L111.287 151.882L109.132 151.509ZM121.041 140.571C120.861 140.971 120.644 141.402 120.392 141.864C120.139 142.325 119.869 142.784 119.58 143.24C119.306 143.685 119.036 144.107 118.769 144.505L117.584 144.299C117.783 143.865 117.981 143.4 118.177 142.904C118.388 142.398 118.585 141.902 118.768 141.416C118.965 140.92 119.13 140.468 119.262 140.059L120.95 140.351L121.041 140.571ZM117.72 139.995C117.539 140.396 117.323 140.827 117.07 141.288C116.818 141.75 116.547 142.209 116.259 142.664C115.984 143.11 115.714 143.532 115.448 143.929L114.299 143.73C114.44 143.41 114.586 143.065 114.737 142.697C114.887 142.328 115.031 141.959 115.169 141.588C115.321 141.208 115.459 140.837 115.583 140.476C115.72 140.118 115.839 139.787 115.94 139.484L117.628 139.776L117.72 139.995Z" fill="#202020"/>
</svg>
