<svg width="776" height="622" viewBox="0 0 776 622" fill="none" xmlns="http://www.w3.org/2000/svg">
<rect x="78" y="66" width="640" height="497" rx="24" fill="white"/>
<path d="M132.35 125V123.74H133.89C134.394 123.74 134.73 123.404 134.73 122.9V122.2H136.06V132H134.73V125H132.35ZM142.866 132.28C140.416 132.28 138.792 130.208 138.792 127.1C138.792 123.992 140.416 121.92 142.866 121.92C145.302 121.92 146.912 123.964 146.912 127.086C146.912 130.222 145.302 132.28 142.866 132.28ZM142.838 123.18C141.046 123.18 140.192 124.44 140.192 127.086C140.192 129.746 141.06 131.02 142.852 131.02C144.644 131.02 145.512 129.746 145.512 127.1C145.512 124.454 144.644 123.18 142.838 123.18ZM153.093 132.28C150.643 132.28 149.019 130.208 149.019 127.1C149.019 123.992 150.643 121.92 153.093 121.92C155.529 121.92 157.139 123.964 157.139 127.086C157.139 130.222 155.529 132.28 153.093 132.28ZM153.065 123.18C151.273 123.18 150.419 124.44 150.419 127.086C150.419 129.746 151.287 131.02 153.079 131.02C154.871 131.02 155.739 129.746 155.739 127.1C155.739 124.454 154.871 123.18 153.065 123.18ZM163.319 132.28C160.869 132.28 159.245 130.208 159.245 127.1C159.245 123.992 160.869 121.92 163.319 121.92C165.755 121.92 167.365 123.964 167.365 127.086C167.365 130.222 165.755 132.28 163.319 132.28ZM163.291 123.18C161.499 123.18 160.645 124.44 160.645 127.086C160.645 129.746 161.513 131.02 163.305 131.02C165.097 131.02 165.965 129.746 165.965 127.1C165.965 124.454 165.097 123.18 163.291 123.18ZM169.822 122.2H171.152V127.31L176.122 122.2H177.872L173.112 127.1H174.022L177.942 132H176.192L172.65 127.576L172.048 128.192H171.152V132H169.822V122.2Z" fill="#565656"/>
<path d="M143.194 193.882C140.884 193.882 139.05 192.524 139.05 190.788C139.05 189.752 139.708 188.758 140.632 188.506V188.198C140.002 188.016 139.498 187.176 139.498 186.224C139.498 184.6 140.996 183.522 143.18 183.522C145.392 183.522 146.904 184.614 146.904 186.252C146.904 187.204 146.4 188.03 145.756 188.212V188.52C146.694 188.772 147.352 189.766 147.352 190.802C147.352 192.524 145.504 193.882 143.194 193.882ZM140.45 190.816C140.45 191.922 141.444 192.538 143.222 192.538C144.972 192.538 145.952 191.936 145.952 190.844C145.952 189.738 144.93 189.024 143.166 189.024C141.43 189.024 140.45 189.71 140.45 190.816ZM140.898 186.252C140.898 187.33 141.612 187.764 143.166 187.764C144.734 187.764 145.504 187.316 145.504 186.252C145.504 185.202 144.762 184.726 143.166 184.726C141.584 184.726 140.898 185.188 140.898 186.252ZM153.528 193.882C151.078 193.882 149.454 191.81 149.454 188.702C149.454 185.594 151.078 183.522 153.528 183.522C155.964 183.522 157.574 185.566 157.574 188.688C157.574 191.824 155.964 193.882 153.528 193.882ZM153.5 184.782C151.708 184.782 150.854 186.042 150.854 188.688C150.854 191.348 151.722 192.622 153.514 192.622C155.306 192.622 156.174 191.348 156.174 188.702C156.174 186.056 155.306 184.782 153.5 184.782ZM163.755 193.882C161.305 193.882 159.681 191.81 159.681 188.702C159.681 185.594 161.305 183.522 163.755 183.522C166.191 183.522 167.801 185.566 167.801 188.688C167.801 191.824 166.191 193.882 163.755 193.882ZM163.727 184.782C161.935 184.782 161.081 186.042 161.081 188.688C161.081 191.348 161.949 192.622 163.741 192.622C165.533 192.622 166.401 191.348 166.401 188.702C166.401 186.056 165.533 184.782 163.727 184.782ZM170.257 183.802H171.587V188.912L176.557 183.802H178.307L173.547 188.702H174.457L178.377 193.602H176.627L173.085 189.178L172.483 189.794H171.587V193.602H170.257V183.802Z" fill="#565656"/>
<path d="M143.858 245.119C145.874 245.119 147.162 246.001 147.442 247.513L146.126 247.695C145.944 246.869 145.202 246.435 143.83 246.435C142.01 246.435 141.408 247.205 141.408 249.543C141.828 248.829 142.78 248.409 143.942 248.409C146 248.409 147.498 249.739 147.498 251.951C147.498 254.093 146.098 255.479 143.83 255.479C141.548 255.479 140.26 254.093 140.106 251.811C139.784 247.065 140.862 245.119 143.858 245.119ZM141.436 251.811C141.436 253.519 142.108 254.135 143.956 254.135C145.622 254.135 146.098 253.631 146.098 252.021C146.098 250.201 145.482 249.739 143.858 249.739C141.884 249.739 141.436 250.411 141.436 251.811ZM153.667 255.479C151.217 255.479 149.593 253.407 149.593 250.299C149.593 247.191 151.217 245.119 153.667 245.119C156.103 245.119 157.713 247.163 157.713 250.285C157.713 253.421 156.103 255.479 153.667 255.479ZM153.639 246.379C151.847 246.379 150.993 247.639 150.993 250.285C150.993 252.945 151.861 254.219 153.653 254.219C155.445 254.219 156.313 252.945 156.313 250.299C156.313 247.653 155.445 246.379 153.639 246.379ZM163.894 255.479C161.444 255.479 159.82 253.407 159.82 250.299C159.82 247.191 161.444 245.119 163.894 245.119C166.33 245.119 167.94 247.163 167.94 250.285C167.94 253.421 166.33 255.479 163.894 255.479ZM163.866 246.379C162.074 246.379 161.22 247.639 161.22 250.285C161.22 252.945 162.088 254.219 163.88 254.219C165.672 254.219 166.54 252.945 166.54 250.299C166.54 247.653 165.672 246.379 163.866 246.379ZM170.396 245.399H171.726V250.509L176.696 245.399H178.446L173.686 250.299H174.596L178.516 255.199H176.766L173.224 250.775L172.622 251.391H171.726V255.199H170.396V245.399Z" fill="#565656"/>
<path d="M140.05 314.561V312.671L144.502 307.001H146.672V313.301H147.82V314.561H146.672V316.801H145.342V314.561H140.05ZM145.342 307.883L141.044 313.301H145.342V307.883ZM153.298 317.081C150.848 317.081 149.224 315.009 149.224 311.901C149.224 308.793 150.848 306.721 153.298 306.721C155.734 306.721 157.344 308.765 157.344 311.887C157.344 315.023 155.734 317.081 153.298 317.081ZM153.27 307.981C151.478 307.981 150.624 309.241 150.624 311.887C150.624 314.547 151.492 315.821 153.284 315.821C155.076 315.821 155.944 314.547 155.944 311.901C155.944 309.255 155.076 307.981 153.27 307.981ZM163.524 317.081C161.074 317.081 159.45 315.009 159.45 311.901C159.45 308.793 161.074 306.721 163.524 306.721C165.96 306.721 167.57 308.765 167.57 311.887C167.57 315.023 165.96 317.081 163.524 317.081ZM163.496 307.981C161.704 307.981 160.85 309.241 160.85 311.887C160.85 314.547 161.718 315.821 163.51 315.821C165.302 315.821 166.17 314.547 166.17 311.901C166.17 309.255 165.302 307.981 163.496 307.981ZM170.027 307.001H171.357V312.111L176.327 307.001H178.077L173.317 311.901H174.227L178.147 316.801H176.397L172.855 312.377L172.253 312.993H171.357V316.801H170.027V307.001Z" fill="#565656"/>
<path d="M147.05 378.398H140.05V377.166C142.164 375.472 145.678 373.204 145.678 370.894C145.678 369.942 145.076 369.578 143.662 369.578C142.052 369.578 141.52 370.054 141.52 371.524V372.098H140.19V371.524C140.19 369.494 141.436 368.318 143.606 368.318C145.72 368.318 147.078 369.424 147.078 370.936C147.078 372.644 145.342 374.772 142.122 376.998H147.05V378.398ZM153.257 378.678C150.807 378.678 149.183 376.606 149.183 373.498C149.183 370.39 150.807 368.318 153.257 368.318C155.693 368.318 157.303 370.362 157.303 373.484C157.303 376.62 155.693 378.678 153.257 378.678ZM153.229 369.578C151.437 369.578 150.583 370.838 150.583 373.484C150.583 376.144 151.451 377.418 153.243 377.418C155.035 377.418 155.903 376.144 155.903 373.498C155.903 370.852 155.035 369.578 153.229 369.578ZM163.483 378.678C161.033 378.678 159.409 376.606 159.409 373.498C159.409 370.39 161.033 368.318 163.483 368.318C165.919 368.318 167.529 370.362 167.529 373.484C167.529 376.62 165.919 378.678 163.483 378.678ZM163.455 369.578C161.663 369.578 160.809 370.838 160.809 373.484C160.809 376.144 161.677 377.418 163.469 377.418C165.261 377.418 166.129 376.144 166.129 373.498C166.129 370.852 165.261 369.578 163.455 369.578ZM169.986 368.598H171.316V373.708L176.286 368.598H178.036L173.276 373.498H174.186L178.106 378.398H176.356L172.814 373.974L172.212 374.59H171.316V378.398H169.986V368.598Z" fill="#565656"/>
<path d="M163.124 440.28C160.674 440.28 159.05 438.208 159.05 435.1C159.05 431.992 160.674 429.92 163.124 429.92C165.56 429.92 167.17 431.964 167.17 435.086C167.17 438.222 165.56 440.28 163.124 440.28ZM163.096 431.18C161.304 431.18 160.45 432.44 160.45 435.086C160.45 437.746 161.318 439.02 163.11 439.02C164.902 439.02 165.77 437.746 165.77 435.1C165.77 432.454 164.902 431.18 163.096 431.18ZM169.627 430.2H170.957V435.31L175.927 430.2H177.677L172.917 435.1H173.827L177.747 440H175.997L172.455 435.576L171.853 436.192H170.957V440H169.627V430.2Z" fill="#565656"/>
<g clip-path="url(#clip0_1181_9076)">
<path d="M195 387C195 385.895 195.895 385 197 385H209.333C210.438 385 211.333 385.895 211.333 387V446H195V387Z" fill="#9FE870"/>
<path d="M215.333 292C215.333 290.895 216.229 290 217.333 290H229.667C230.771 290 231.667 290.895 231.667 292V446H215.333V292Z" fill="#AAB2AA"/>
<path d="M235.667 360C235.667 358.895 236.562 358 237.667 358H250C251.105 358 252 358.895 252 360V446H235.667V360Z" fill="#163300"/>
<path d="M276 387C276 385.895 276.895 385 278 385H290.333C291.438 385 292.333 385.895 292.333 387V446H276V387Z" fill="#9FE870"/>
<path d="M296.333 122C296.333 120.895 297.229 120 298.333 120H310.667C311.771 120 312.667 120.895 312.667 122V446H296.333V122Z" fill="#AAB2AA"/>
<path d="M316.667 360C316.667 358.895 317.562 358 318.667 358H331C332.105 358 333 358.895 333 360V446H316.667V360Z" fill="#163300"/>
<path d="M357 387C357 385.895 357.895 385 359 385H371.333C372.438 385 373.333 385.895 373.333 387V446H357V387Z" fill="#9FE870"/>
<path d="M377.333 323C377.333 321.895 378.229 321 379.333 321H391.667C392.771 321 393.667 321.895 393.667 323V446H377.333V323Z" fill="#AAB2AA"/>
<path d="M397.667 360C397.667 358.895 398.562 358 399.667 358H412C413.105 358 414 358.895 414 360V446H397.667V360Z" fill="#163300"/>
<path d="M438 387C438 385.895 438.895 385 440 385H452.333C453.438 385 454.333 385.895 454.333 387V446H438V387Z" fill="#9FE870"/>
<path d="M458.333 262C458.333 260.895 459.229 260 460.333 260H472.667C473.771 260 474.667 260.895 474.667 262V446H458.333V262Z" fill="#AAB2AA"/>
<path d="M478.667 360C478.667 358.895 479.562 358 480.667 358H493C494.104 358 495 358.895 495 360V446H478.667V360Z" fill="#163300"/>
<path d="M519 387C519 385.895 519.895 385 521 385H533.333C534.438 385 535.333 385.895 535.333 387V446H519V387Z" fill="#9FE870"/>
<path d="M539.333 122C539.333 120.895 540.229 120 541.333 120H553.667C554.771 120 555.667 120.895 555.667 122V446H539.333V122Z" fill="#AAB2AA"/>
<path d="M559.667 360C559.667 358.895 560.562 358 561.667 358H574C575.104 358 576 358.895 576 360V446H559.667V360Z" fill="#163300"/>
<path d="M600 387C600 385.895 600.895 385 602 385H614.333C615.438 385 616.333 385.895 616.333 387V446H600V387Z" fill="#9FE870"/>
<path d="M620.333 343C620.333 341.895 621.229 341 622.333 341H634.667C635.771 341 636.667 341.895 636.667 343V446H620.333V343Z" fill="#AAB2AA"/>
<path d="M640.667 360C640.667 358.895 641.562 358 642.667 358H655C656.104 358 657 358.895 657 360V446H640.667V360Z" fill="#163300"/>
</g>
<path d="M210.22 479.48C210.924 479.72 211.404 479.816 211.804 479.816C212.796 479.816 213.516 479.208 213.516 478.36V469.8H215.036V478.76C215.036 480.216 213.804 481.32 212.156 481.32C211.66 481.32 211.036 481.224 210.22 481V479.48ZM224.393 479.272C222.841 480.488 221.353 481.144 220.137 481.144C218.633 481.144 217.673 480.12 217.673 478.632C217.673 475.848 221.001 474.488 224.249 475.816C223.897 474.584 222.985 473.88 221.529 473.88C220.361 473.88 219.641 474.344 219.353 475.32L217.801 475.16C218.265 473.624 219.753 472.68 221.705 472.68C224.297 472.68 225.881 474.328 225.881 477V480.984L224.393 481V479.272ZM224.393 477.208C222.153 476.024 219.161 476.728 219.161 478.536C219.161 479.24 219.625 479.688 220.505 479.688C221.609 479.688 222.985 479 224.393 477.72V477.208ZM227.714 473H229.202V473.768C229.842 473.064 230.738 472.68 231.842 472.68C234.146 472.68 235.394 474.376 235.394 477.48V481H233.906V477.48C233.906 474.696 233.426 473.88 231.73 473.88C230.018 473.88 229.282 474.728 229.202 476.76V481H227.714V473Z" fill="#565656"/>
<path d="M290.6 481V469.8H298.28V471.24H292.12V474.6H297.8V476.04H292.12V481H290.6ZM299.564 477C299.564 474.424 301.308 472.68 303.916 472.68C306.524 472.68 308.284 474.424 308.284 477.288V477.368H301.18C301.26 479.304 302.108 480.12 304.124 480.12C305.516 480.12 306.236 479.72 306.524 478.68L308.076 478.824C307.596 480.456 306.252 481.32 304.204 481.32C301.324 481.32 299.564 479.592 299.564 477ZM301.212 476.12H306.604C306.364 474.52 305.516 473.88 303.916 473.88C302.268 473.88 301.42 474.552 301.212 476.12ZM311.448 481H310.12V469.8H311.608V473.912C312.28 473.144 313.24 472.68 314.504 472.68C316.968 472.68 318.728 474.424 318.728 477C318.728 479.576 316.984 481.32 314.52 481.32C313.24 481.32 312.28 480.856 311.608 480.088L311.448 481ZM311.608 477.128C311.688 479.144 312.52 480.12 314.44 480.12C316.296 480.12 317.128 479.192 317.128 477C317.128 474.808 316.296 473.88 314.44 473.88C312.52 473.88 311.688 474.856 311.608 476.872V477.128Z" fill="#565656"/>
<path d="M372.62 481H371.1V469.8H373.82L377.5 479.896L381.18 469.8H383.9V481H382.38V471.112L378.78 481H376.22L372.62 471.112V481ZM392.94 479.272C391.388 480.488 389.9 481.144 388.684 481.144C387.18 481.144 386.22 480.12 386.22 478.632C386.22 475.848 389.548 474.488 392.796 475.816C392.444 474.584 391.532 473.88 390.076 473.88C388.908 473.88 388.188 474.344 387.9 475.32L386.348 475.16C386.812 473.624 388.3 472.68 390.252 472.68C392.844 472.68 394.428 474.328 394.428 477V480.984L392.94 481V479.272ZM392.94 477.208C390.7 476.024 387.708 476.728 387.708 478.536C387.708 479.24 388.172 479.688 389.052 479.688C390.156 479.688 391.532 479 392.94 477.72V477.208ZM397.749 481H396.261V473H397.749V474.36C398.501 473.496 399.621 473 400.965 473V474.2C398.789 474.2 397.829 475.096 397.749 477.256V481Z" fill="#565656"/>
<path d="M454.532 481H452.9L456.74 469.8H459.204L463.044 481H461.412L460.596 478.6H455.348L454.532 481ZM455.844 477.16H460.1L457.972 470.968L455.844 477.16ZM464.558 485V473H465.886L466.046 473.912C466.702 473.144 467.661 472.68 468.942 472.68C471.406 472.68 473.166 474.424 473.166 477C473.166 479.576 471.422 481.32 468.958 481.32C467.678 481.32 466.718 480.856 466.046 480.088V485H464.558ZM466.046 477.128C466.126 479.144 466.958 480.12 468.878 480.12C470.734 480.12 471.566 479.192 471.566 477C471.566 474.808 470.734 473.88 468.878 473.88C466.958 473.88 466.126 474.856 466.046 476.872V477.128ZM476.499 481H475.011V473H476.499V474.36C477.251 473.496 478.371 473 479.715 473V474.2C477.539 474.2 476.579 475.096 476.499 477.256V481Z" fill="#565656"/>
<path d="M533.12 481H531.6V469.8H534.32L538 479.896L541.68 469.8H544.4V481H542.88V471.112L539.28 481H536.72L533.12 471.112V481ZM553.44 479.272C551.888 480.488 550.4 481.144 549.184 481.144C547.68 481.144 546.72 480.12 546.72 478.632C546.72 475.848 550.048 474.488 553.296 475.816C552.944 474.584 552.032 473.88 550.576 473.88C549.408 473.88 548.688 474.344 548.4 475.32L546.848 475.16C547.312 473.624 548.8 472.68 550.752 472.68C553.344 472.68 554.928 474.328 554.928 477V480.984L553.44 481V479.272ZM553.44 477.208C551.2 476.024 548.208 476.728 548.208 478.536C548.208 479.24 548.672 479.688 549.552 479.688C550.656 479.688 552.032 479 553.44 477.72V477.208ZM555.564 473H557.132L559.852 480.472L562.54 473H564.108L559.788 485H558.22L559.66 481H558.476L555.564 473Z" fill="#565656"/>
<path d="M615.22 479.48C615.924 479.72 616.404 479.816 616.804 479.816C617.796 479.816 618.516 479.208 618.516 478.36V469.8H620.036V478.76C620.036 480.216 618.804 481.32 617.156 481.32C616.66 481.32 616.036 481.224 615.22 481V479.48ZM626.625 481.32C624.321 481.32 623.073 479.624 623.073 476.52V473H624.561V476.52C624.561 479.304 625.041 480.12 626.737 480.12C628.449 480.12 629.185 479.272 629.265 477.24V473H630.753V481H629.265V480.232C628.625 480.936 627.729 481.32 626.625 481.32ZM632.995 473H634.483V473.768C635.123 473.064 636.019 472.68 637.123 472.68C639.427 472.68 640.675 474.376 640.675 477.48V481H639.187V477.48C639.187 474.696 638.707 473.88 637.011 473.88C635.299 473.88 634.563 474.728 634.483 476.76V481H632.995V473Z" fill="#565656"/>
<circle cx="248" cy="529" r="4" fill="#9FE870"/>
<path d="M271.408 523.8L266.496 535H264.912L259.984 523.8H261.712L265.744 533L269.808 523.8H271.408ZM272.628 526.52H274.164V535H272.628V526.52ZM273.396 524.888C273.097 524.888 272.847 524.792 272.644 524.6C272.452 524.408 272.356 524.173 272.356 523.896C272.356 523.619 272.452 523.384 272.644 523.192C272.847 522.989 273.097 522.888 273.396 522.888C273.695 522.888 273.94 522.984 274.132 523.176C274.335 523.357 274.436 523.587 274.436 523.864C274.436 524.152 274.335 524.397 274.132 524.6C273.94 524.792 273.695 524.888 273.396 524.888ZM284.761 530.808C284.761 530.925 284.75 531.08 284.729 531.272H277.849C277.945 532.019 278.27 532.621 278.825 533.08C279.39 533.528 280.089 533.752 280.921 533.752C281.934 533.752 282.75 533.411 283.369 532.728L284.217 533.72C283.833 534.168 283.353 534.509 282.777 534.744C282.211 534.979 281.577 535.096 280.873 535.096C279.977 535.096 279.182 534.915 278.489 534.552C277.795 534.179 277.257 533.661 276.873 533C276.499 532.339 276.313 531.592 276.313 530.76C276.313 529.939 276.494 529.197 276.857 528.536C277.23 527.875 277.737 527.363 278.377 527C279.027 526.627 279.758 526.44 280.569 526.44C281.379 526.44 282.099 526.627 282.729 527C283.369 527.363 283.865 527.875 284.217 528.536C284.579 529.197 284.761 529.955 284.761 530.808ZM280.569 527.736C279.833 527.736 279.214 527.96 278.713 528.408C278.222 528.856 277.934 529.443 277.849 530.168H283.289C283.203 529.453 282.91 528.872 282.409 528.424C281.918 527.965 281.305 527.736 280.569 527.736ZM299.569 526.52L296.401 535H294.929L292.481 528.568L290.001 535H288.529L285.377 526.52H286.833L289.297 533.272L291.857 526.52H293.153L295.665 533.304L298.193 526.52H299.569ZM303.451 535.096C302.757 535.096 302.091 535.005 301.451 534.824C300.811 534.632 300.309 534.392 299.947 534.104L300.587 532.888C300.96 533.155 301.413 533.368 301.947 533.528C302.48 533.688 303.019 533.768 303.562 533.768C304.907 533.768 305.579 533.384 305.579 532.616C305.579 532.36 305.488 532.157 305.307 532.008C305.125 531.859 304.896 531.752 304.619 531.688C304.352 531.613 303.968 531.533 303.467 531.448C302.784 531.341 302.224 531.219 301.787 531.08C301.36 530.941 300.992 530.707 300.683 530.376C300.373 530.045 300.219 529.581 300.219 528.984C300.219 528.216 300.539 527.603 301.179 527.144C301.819 526.675 302.677 526.44 303.755 526.44C304.32 526.44 304.885 526.509 305.451 526.648C306.016 526.787 306.48 526.973 306.843 527.208L306.187 528.424C305.493 527.976 304.677 527.752 303.739 527.752C303.088 527.752 302.592 527.859 302.251 528.072C301.909 528.285 301.739 528.568 301.739 528.92C301.739 529.197 301.835 529.416 302.027 529.576C302.219 529.736 302.453 529.853 302.731 529.928C303.019 530.003 303.419 530.088 303.931 530.184C304.613 530.301 305.163 530.429 305.579 530.568C306.005 530.696 306.368 530.92 306.667 531.24C306.965 531.56 307.115 532.008 307.115 532.584C307.115 533.352 306.784 533.965 306.123 534.424C305.472 534.872 304.581 535.096 303.451 535.096Z" fill="#565656"/>
<circle cx="336" cy="529" r="4" fill="#AAB2AA"/>
<path d="M354.688 535.128C353.568 535.128 352.555 534.883 351.648 534.392C350.752 533.891 350.048 533.208 349.536 532.344C349.024 531.469 348.768 530.488 348.768 529.4C348.768 528.312 349.024 527.336 349.536 526.472C350.048 525.597 350.757 524.915 351.664 524.424C352.571 523.923 353.584 523.672 354.704 523.672C355.579 523.672 356.379 523.821 357.104 524.12C357.829 524.408 358.448 524.84 358.96 525.416L357.92 526.424C357.077 525.539 356.027 525.096 354.768 525.096C353.936 525.096 353.184 525.283 352.512 525.656C351.84 526.029 351.312 526.547 350.928 527.208C350.555 527.859 350.368 528.589 350.368 529.4C350.368 530.211 350.555 530.947 350.928 531.608C351.312 532.259 351.84 532.771 352.512 533.144C353.184 533.517 353.936 533.704 354.768 533.704C356.016 533.704 357.067 533.256 357.92 532.36L358.96 533.368C358.448 533.944 357.824 534.381 357.088 534.68C356.363 534.979 355.563 535.128 354.688 535.128ZM361.019 523.128H362.555V535H361.019V523.128ZM365.487 526.52H367.023V535H365.487V526.52ZM366.255 524.888C365.957 524.888 365.706 524.792 365.503 524.6C365.311 524.408 365.215 524.173 365.215 523.896C365.215 523.619 365.311 523.384 365.503 523.192C365.706 522.989 365.957 522.888 366.255 522.888C366.554 522.888 366.799 522.984 366.991 523.176C367.194 523.357 367.295 523.587 367.295 523.864C367.295 524.152 367.194 524.397 366.991 524.6C366.799 524.792 366.554 524.888 366.255 524.888ZM373.652 535.096C372.788 535.096 372.015 534.909 371.332 534.536C370.66 534.163 370.132 533.651 369.748 533C369.364 532.339 369.172 531.592 369.172 530.76C369.172 529.928 369.364 529.187 369.748 528.536C370.132 527.875 370.66 527.363 371.332 527C372.015 526.627 372.788 526.44 373.652 526.44C374.42 526.44 375.103 526.595 375.7 526.904C376.308 527.213 376.777 527.661 377.108 528.248L375.94 529C375.673 528.595 375.343 528.291 374.948 528.088C374.553 527.885 374.116 527.784 373.636 527.784C373.081 527.784 372.58 527.907 372.132 528.152C371.695 528.397 371.348 528.749 371.092 529.208C370.847 529.656 370.724 530.173 370.724 530.76C370.724 531.357 370.847 531.885 371.092 532.344C371.348 532.792 371.695 533.139 372.132 533.384C372.58 533.629 373.081 533.752 373.636 533.752C374.116 533.752 374.553 533.651 374.948 533.448C375.343 533.245 375.673 532.941 375.94 532.536L377.108 533.272C376.777 533.859 376.308 534.312 375.7 534.632C375.103 534.941 374.42 535.096 373.652 535.096ZM382.283 531.048L380.523 532.68V535H378.987V523.128H380.523V530.744L385.147 526.52H387.003L383.435 530.024L387.355 535H385.467L382.283 531.048ZM391.013 535.096C390.32 535.096 389.653 535.005 389.013 534.824C388.373 534.632 387.872 534.392 387.509 534.104L388.149 532.888C388.522 533.155 388.976 533.368 389.509 533.528C390.042 533.688 390.581 533.768 391.125 533.768C392.469 533.768 393.141 533.384 393.141 532.616C393.141 532.36 393.05 532.157 392.869 532.008C392.688 531.859 392.458 531.752 392.181 531.688C391.914 531.613 391.53 531.533 391.029 531.448C390.346 531.341 389.786 531.219 389.349 531.08C388.922 530.941 388.554 530.707 388.245 530.376C387.936 530.045 387.781 529.581 387.781 528.984C387.781 528.216 388.101 527.603 388.741 527.144C389.381 526.675 390.24 526.44 391.317 526.44C391.882 526.44 392.448 526.509 393.013 526.648C393.578 526.787 394.042 526.973 394.405 527.208L393.749 528.424C393.056 527.976 392.24 527.752 391.301 527.752C390.65 527.752 390.154 527.859 389.813 528.072C389.472 528.285 389.301 528.568 389.301 528.92C389.301 529.197 389.397 529.416 389.589 529.576C389.781 529.736 390.016 529.853 390.293 529.928C390.581 530.003 390.981 530.088 391.493 530.184C392.176 530.301 392.725 530.429 393.141 530.568C393.568 530.696 393.93 530.92 394.229 531.24C394.528 531.56 394.677 532.008 394.677 532.584C394.677 533.352 394.346 533.965 393.685 534.424C393.034 534.872 392.144 535.096 391.013 535.096Z" fill="#565656"/>
<circle cx="424" cy="529" r="4" fill="#163300"/>
<path d="M445.808 533.608V535H437.68V523.8H445.584V525.192H439.28V528.632H444.896V529.992H439.28V533.608H445.808ZM452.703 526.44C453.78 526.44 454.633 526.755 455.263 527.384C455.903 528.003 456.223 528.915 456.223 530.12V535H454.687V530.296C454.687 529.475 454.489 528.856 454.095 528.44C453.7 528.024 453.135 527.816 452.399 527.816C451.567 527.816 450.911 528.061 450.431 528.552C449.951 529.032 449.711 529.725 449.711 530.632V535H448.175V526.52H449.647V527.8C449.956 527.363 450.372 527.027 450.895 526.792C451.428 526.557 452.031 526.44 452.703 526.44ZM467.224 526.52V533.848C467.224 535.331 466.856 536.424 466.12 537.128C465.384 537.843 464.286 538.2 462.824 538.2C462.024 538.2 461.262 538.088 460.536 537.864C459.811 537.651 459.224 537.341 458.776 536.936L459.512 535.752C459.907 536.093 460.392 536.36 460.968 536.552C461.555 536.755 462.158 536.856 462.776 536.856C463.768 536.856 464.499 536.621 464.968 536.152C465.448 535.683 465.688 534.968 465.688 534.008V533.336C465.326 533.773 464.878 534.104 464.344 534.328C463.822 534.541 463.251 534.648 462.632 534.648C461.822 534.648 461.086 534.477 460.424 534.136C459.774 533.784 459.262 533.299 458.888 532.68C458.515 532.051 458.328 531.336 458.328 530.536C458.328 529.736 458.515 529.027 458.888 528.408C459.262 527.779 459.774 527.293 460.424 526.952C461.086 526.611 461.822 526.44 462.632 526.44C463.272 526.44 463.864 526.557 464.408 526.792C464.963 527.027 465.416 527.373 465.768 527.832V526.52H467.224ZM462.808 533.304C463.363 533.304 463.859 533.187 464.296 532.952C464.744 532.717 465.091 532.392 465.336 531.976C465.592 531.549 465.72 531.069 465.72 530.536C465.72 529.715 465.448 529.053 464.904 528.552C464.36 528.04 463.662 527.784 462.808 527.784C461.944 527.784 461.24 528.04 460.696 528.552C460.152 529.053 459.88 529.715 459.88 530.536C459.88 531.069 460.003 531.549 460.248 531.976C460.504 532.392 460.851 532.717 461.288 532.952C461.736 533.187 462.243 533.304 462.808 533.304ZM473.247 526.44C474.42 526.44 475.316 526.728 475.935 527.304C476.564 527.88 476.879 528.739 476.879 529.88V535H475.423V533.88C475.167 534.275 474.799 534.579 474.319 534.792C473.85 534.995 473.29 535.096 472.639 535.096C471.69 535.096 470.927 534.867 470.351 534.408C469.786 533.949 469.503 533.347 469.503 532.6C469.503 531.853 469.775 531.256 470.319 530.808C470.863 530.349 471.727 530.12 472.911 530.12H475.343V529.816C475.343 529.155 475.151 528.648 474.767 528.296C474.383 527.944 473.818 527.768 473.071 527.768C472.57 527.768 472.079 527.853 471.599 528.024C471.119 528.184 470.714 528.403 470.383 528.68L469.743 527.528C470.18 527.176 470.703 526.909 471.311 526.728C471.919 526.536 472.564 526.44 473.247 526.44ZM472.895 533.912C473.482 533.912 473.988 533.784 474.415 533.528C474.842 533.261 475.151 532.888 475.343 532.408V531.224H472.975C471.674 531.224 471.023 531.661 471.023 532.536C471.023 532.963 471.188 533.299 471.519 533.544C471.85 533.789 472.308 533.912 472.895 533.912ZM487.881 526.52V533.848C487.881 535.331 487.513 536.424 486.777 537.128C486.041 537.843 484.942 538.2 483.481 538.2C482.681 538.2 481.918 538.088 481.193 537.864C480.467 537.651 479.881 537.341 479.433 536.936L480.169 535.752C480.563 536.093 481.049 536.36 481.625 536.552C482.211 536.755 482.814 536.856 483.433 536.856C484.425 536.856 485.155 536.621 485.625 536.152C486.105 535.683 486.345 534.968 486.345 534.008V533.336C485.982 533.773 485.534 534.104 485.001 534.328C484.478 534.541 483.907 534.648 483.289 534.648C482.478 534.648 481.742 534.477 481.081 534.136C480.43 533.784 479.918 533.299 479.545 532.68C479.171 532.051 478.985 531.336 478.985 530.536C478.985 529.736 479.171 529.027 479.545 528.408C479.918 527.779 480.43 527.293 481.081 526.952C481.742 526.611 482.478 526.44 483.289 526.44C483.929 526.44 484.521 526.557 485.065 526.792C485.619 527.027 486.073 527.373 486.425 527.832V526.52H487.881ZM483.465 533.304C484.019 533.304 484.515 533.187 484.953 532.952C485.401 532.717 485.747 532.392 485.993 531.976C486.249 531.549 486.377 531.069 486.377 530.536C486.377 529.715 486.105 529.053 485.561 528.552C485.017 528.04 484.318 527.784 483.465 527.784C482.601 527.784 481.897 528.04 481.353 528.552C480.809 529.053 480.537 529.715 480.537 530.536C480.537 531.069 480.659 531.549 480.905 531.976C481.161 532.392 481.507 532.717 481.945 532.952C482.393 533.187 482.899 533.304 483.465 533.304ZM498.479 530.808C498.479 530.925 498.469 531.08 498.447 531.272H491.567C491.663 532.019 491.989 532.621 492.543 533.08C493.109 533.528 493.807 533.752 494.639 533.752C495.653 533.752 496.469 533.411 497.087 532.728L497.935 533.72C497.551 534.168 497.071 534.509 496.495 534.744C495.93 534.979 495.295 535.096 494.591 535.096C493.695 535.096 492.901 534.915 492.207 534.552C491.514 534.179 490.975 533.661 490.591 533C490.218 532.339 490.031 531.592 490.031 530.76C490.031 529.939 490.213 529.197 490.575 528.536C490.949 527.875 491.455 527.363 492.095 527C492.746 526.627 493.477 526.44 494.287 526.44C495.098 526.44 495.818 526.627 496.447 527C497.087 527.363 497.583 527.875 497.935 528.536C498.298 529.197 498.479 529.955 498.479 530.808ZM494.287 527.736C493.551 527.736 492.933 527.96 492.431 528.408C491.941 528.856 491.653 529.443 491.567 530.168H497.007C496.922 529.453 496.629 528.872 496.127 528.424C495.637 527.965 495.023 527.736 494.287 527.736ZM511.22 526.44C512.287 526.44 513.13 526.749 513.748 527.368C514.378 527.987 514.692 528.904 514.692 530.12V535H513.156V530.296C513.156 529.475 512.964 528.856 512.58 528.44C512.207 528.024 511.668 527.816 510.964 527.816C510.186 527.816 509.567 528.061 509.108 528.552C508.65 529.032 508.42 529.725 508.42 530.632V535H506.884V530.296C506.884 529.475 506.692 528.856 506.308 528.44C505.935 528.024 505.396 527.816 504.692 527.816C503.914 527.816 503.295 528.061 502.836 528.552C502.378 529.032 502.148 529.725 502.148 530.632V535H500.612V526.52H502.084V527.784C502.394 527.347 502.799 527.016 503.3 526.792C503.802 526.557 504.372 526.44 505.012 526.44C505.674 526.44 506.26 526.573 506.772 526.84C507.284 527.107 507.679 527.496 507.956 528.008C508.276 527.517 508.719 527.133 509.284 526.856C509.86 526.579 510.506 526.44 511.22 526.44ZM525.229 530.808C525.229 530.925 525.219 531.08 525.197 531.272H518.317C518.413 532.019 518.739 532.621 519.293 533.08C519.859 533.528 520.557 533.752 521.389 533.752C522.403 533.752 523.219 533.411 523.837 532.728L524.685 533.72C524.301 534.168 523.821 534.509 523.245 534.744C522.68 534.979 522.045 535.096 521.341 535.096C520.445 535.096 519.651 534.915 518.957 534.552C518.264 534.179 517.725 533.661 517.341 533C516.968 532.339 516.781 531.592 516.781 530.76C516.781 529.939 516.963 529.197 517.325 528.536C517.699 527.875 518.205 527.363 518.845 527C519.496 526.627 520.227 526.44 521.037 526.44C521.848 526.44 522.568 526.627 523.197 527C523.837 527.363 524.333 527.875 524.685 528.536C525.048 529.197 525.229 529.955 525.229 530.808ZM521.037 527.736C520.301 527.736 519.683 527.96 519.181 528.408C518.691 528.856 518.403 529.443 518.317 530.168H523.757C523.672 529.453 523.379 528.872 522.877 528.424C522.387 527.965 521.773 527.736 521.037 527.736ZM531.89 526.44C532.968 526.44 533.821 526.755 534.45 527.384C535.09 528.003 535.41 528.915 535.41 530.12V535H533.874V530.296C533.874 529.475 533.677 528.856 533.282 528.44C532.888 528.024 532.322 527.816 531.586 527.816C530.754 527.816 530.098 528.061 529.618 528.552C529.138 529.032 528.898 529.725 528.898 530.632V535H527.362V526.52H528.834V527.8C529.144 527.363 529.56 527.027 530.082 526.792C530.616 526.557 531.218 526.44 531.89 526.44ZM543.021 534.504C542.797 534.696 542.52 534.845 542.189 534.952C541.858 535.048 541.517 535.096 541.165 535.096C540.312 535.096 539.65 534.867 539.181 534.408C538.712 533.949 538.477 533.293 538.477 532.44V527.784H537.037V526.52H538.477V524.664H540.013V526.52H542.445V527.784H540.013V532.376C540.013 532.835 540.125 533.187 540.349 533.432C540.584 533.677 540.914 533.8 541.341 533.8C541.81 533.8 542.21 533.667 542.541 533.4L543.021 534.504ZM547.31 535.096C546.617 535.096 545.95 535.005 545.31 534.824C544.67 534.632 544.169 534.392 543.806 534.104L544.446 532.888C544.819 533.155 545.273 533.368 545.806 533.528C546.339 533.688 546.878 533.768 547.422 533.768C548.766 533.768 549.438 533.384 549.438 532.616C549.438 532.36 549.347 532.157 549.166 532.008C548.985 531.859 548.755 531.752 548.478 531.688C548.211 531.613 547.827 531.533 547.326 531.448C546.643 531.341 546.083 531.219 545.646 531.08C545.219 530.941 544.851 530.707 544.542 530.376C544.233 530.045 544.078 529.581 544.078 528.984C544.078 528.216 544.398 527.603 545.038 527.144C545.678 526.675 546.537 526.44 547.614 526.44C548.179 526.44 548.745 526.509 549.31 526.648C549.875 526.787 550.339 526.973 550.702 527.208L550.046 528.424C549.353 527.976 548.537 527.752 547.598 527.752C546.947 527.752 546.451 527.859 546.11 528.072C545.769 528.285 545.598 528.568 545.598 528.92C545.598 529.197 545.694 529.416 545.886 529.576C546.078 529.736 546.313 529.853 546.59 529.928C546.878 530.003 547.278 530.088 547.79 530.184C548.473 530.301 549.022 530.429 549.438 530.568C549.865 530.696 550.227 530.92 550.526 531.24C550.825 531.56 550.974 532.008 550.974 532.584C550.974 533.352 550.643 533.965 549.982 534.424C549.331 534.872 548.441 535.096 547.31 535.096Z" fill="#565656"/>
<g filter="url(#filter0_d_1181_9076)">
<rect x="456" y="7" width="305" height="99" rx="16" fill="white"/>
<path d="M485.982 31.2L481.684 41H480.298L475.986 31.2H477.498L481.026 39.25L484.582 31.2H485.982ZM487.049 33.58H488.393V41H487.049V33.58ZM487.721 32.152C487.46 32.152 487.241 32.068 487.063 31.9C486.895 31.732 486.811 31.5267 486.811 31.284C486.811 31.0413 486.895 30.836 487.063 30.668C487.241 30.4907 487.46 30.402 487.721 30.402C487.983 30.402 488.197 30.486 488.365 30.654C488.543 30.8127 488.631 31.0133 488.631 31.256C488.631 31.508 488.543 31.7227 488.365 31.9C488.197 32.068 487.983 32.152 487.721 32.152ZM497.666 37.332C497.666 37.4347 497.656 37.57 497.638 37.738H491.618C491.702 38.3913 491.986 38.9187 492.472 39.32C492.966 39.712 493.578 39.908 494.306 39.908C495.192 39.908 495.906 39.6093 496.448 39.012L497.19 39.88C496.854 40.272 496.434 40.5707 495.93 40.776C495.435 40.9813 494.88 41.084 494.264 41.084C493.48 41.084 492.784 40.9253 492.178 40.608C491.571 40.2813 491.1 39.8287 490.764 39.25C490.437 38.6713 490.274 38.018 490.274 37.29C490.274 36.5713 490.432 35.9227 490.75 35.344C491.076 34.7653 491.52 34.3173 492.08 34C492.649 33.6733 493.288 33.51 493.998 33.51C494.707 33.51 495.337 33.6733 495.888 34C496.448 34.3173 496.882 34.7653 497.19 35.344C497.507 35.9227 497.666 36.5853 497.666 37.332ZM493.998 34.644C493.354 34.644 492.812 34.84 492.374 35.232C491.944 35.624 491.692 36.1373 491.618 36.772H496.378C496.303 36.1467 496.046 35.638 495.608 35.246C495.178 34.8447 494.642 34.644 493.998 34.644ZM510.623 33.58L507.851 41H506.563L504.421 35.372L502.251 41H500.963L498.205 33.58H499.479L501.635 39.488L503.875 33.58H505.009L507.207 39.516L509.419 33.58H510.623ZM514.019 41.084C513.413 41.084 512.829 41.0047 512.269 40.846C511.709 40.678 511.271 40.468 510.953 40.216L511.513 39.152C511.84 39.3853 512.237 39.572 512.703 39.712C513.17 39.852 513.641 39.922 514.117 39.922C515.293 39.922 515.881 39.586 515.881 38.914C515.881 38.69 515.802 38.5127 515.643 38.382C515.485 38.2513 515.284 38.158 515.041 38.102C514.808 38.0367 514.472 37.9667 514.033 37.892C513.436 37.7987 512.946 37.6913 512.563 37.57C512.19 37.4487 511.868 37.2433 511.597 36.954C511.327 36.6647 511.191 36.2587 511.191 35.736C511.191 35.064 511.471 34.5273 512.031 34.126C512.591 33.7153 513.343 33.51 514.285 33.51C514.78 33.51 515.275 33.5707 515.769 33.692C516.264 33.8133 516.67 33.9767 516.987 34.182L516.413 35.246C515.807 34.854 515.093 34.658 514.271 34.658C513.702 34.658 513.268 34.7513 512.969 34.938C512.671 35.1247 512.521 35.372 512.521 35.68C512.521 35.9227 512.605 36.114 512.773 36.254C512.941 36.394 513.147 36.4967 513.389 36.562C513.641 36.6273 513.991 36.702 514.439 36.786C515.037 36.8887 515.517 37.0007 515.881 37.122C516.255 37.234 516.572 37.43 516.833 37.71C517.095 37.99 517.225 38.382 517.225 38.886C517.225 39.558 516.936 40.0947 516.357 40.496C515.788 40.888 515.009 41.084 514.019 41.084Z" fill="#565656"/>
<path d="M478.4 66.704H481.44C481.44 70.352 482.912 71.632 487.264 71.632C490.976 71.632 492.192 70.704 492.192 68.016C492.192 64.88 490.56 63.92 485.088 63.92V61.04C490.4 61.04 491.68 60.304 491.68 57.648C491.68 54.8 490.24 53.872 486.912 53.872C483.04 53.872 481.824 55.12 481.824 59.024H478.784C478.784 53.936 481.792 50.992 486.912 50.992C491.584 50.992 494.88 53.424 494.88 57.104C494.88 59.856 493.024 62.16 491.296 62.192V62.768C493.312 62.8 495.392 65.232 495.392 68.144C495.392 71.984 491.744 74.64 486.784 74.64C481.536 74.64 478.4 71.664 478.4 66.704ZM500.181 68.88V64.56L510.357 51.6H515.317V66H517.941V68.88H515.317V74H512.277V68.88H500.181ZM512.277 53.616L502.453 66H512.277V53.616ZM537.15 74H521.15V71.184C525.982 67.312 534.014 62.128 534.014 56.848C534.014 54.672 532.638 53.84 529.406 53.84C525.726 53.84 524.51 54.928 524.51 58.288V59.6H521.47V58.288C521.47 53.648 524.318 50.96 529.278 50.96C534.11 50.96 537.214 53.488 537.214 56.944C537.214 60.848 533.246 65.712 525.886 70.8H537.15V74ZM542.025 70.16H545.865V74L544.585 78.8H542.345L543.625 74H542.025V70.16ZM550.65 59.024C550.65 54.128 553.85 50.96 559.034 50.96C564.25 50.96 567.194 54.128 567.546 59.344C568.282 70.192 565.818 74.64 558.97 74.64C554.362 74.64 551.418 72.624 550.778 69.168L553.786 68.752C554.202 70.64 555.898 71.632 559.034 71.632C563.194 71.632 564.57 69.872 564.57 64.528C563.61 66.16 561.434 67.12 558.778 67.12C554.074 67.12 550.65 64.08 550.65 59.024ZM553.85 58.864C553.85 63.024 555.258 64.08 558.97 64.08C563.482 64.08 564.506 62.544 564.506 59.344C564.506 55.44 562.97 54.032 558.746 54.032C554.938 54.032 553.85 55.184 553.85 58.864ZM572.463 68.88V64.56L582.639 51.6H587.599V66H590.223V68.88H587.599V74H584.559V68.88H572.463ZM584.559 53.616L574.735 66H584.559V53.616ZM609.431 74H593.431V71.184C598.263 67.312 606.295 62.128 606.295 56.848C606.295 54.672 604.919 53.84 601.687 53.84C598.007 53.84 596.791 54.928 596.791 58.288V59.6H593.751V58.288C593.751 53.648 596.599 50.96 601.559 50.96C606.391 50.96 609.495 53.488 609.495 56.944C609.495 60.848 605.527 65.712 598.167 70.8H609.431V74Z" fill="#202020"/>
<path d="M717 44.5C724.58 44.5 731.34 48.76 734.64 55.5C731.34 62.24 724.58 66.5 717 66.5C709.42 66.5 702.66 62.24 699.36 55.5C702.66 48.76 709.42 44.5 717 44.5ZM717 40.5C707 40.5 698.46 46.72 695 55.5C698.46 64.28 707 70.5 717 70.5C727 70.5 735.54 64.28 739 55.5C735.54 46.72 727 40.5 717 40.5ZM717 50.5C719.76 50.5 722 52.74 722 55.5C722 58.26 719.76 60.5 717 60.5C714.24 60.5 712 58.26 712 55.5C712 52.74 714.24 50.5 717 50.5ZM717 46.5C712.04 46.5 708 50.54 708 55.5C708 60.46 712.04 64.5 717 64.5C721.96 64.5 726 60.46 726 55.5C726 50.54 721.96 46.5 717 46.5Z" fill="#9FE870"/>
</g>
<g filter="url(#filter1_d_1181_9076)">
<rect x="15" y="500" width="305" height="99" rx="16" fill="white"/>
<path d="M40.852 534.112C39.872 534.112 38.9853 533.897 38.192 533.468C37.408 533.029 36.792 532.432 36.344 531.676C35.896 530.911 35.672 530.052 35.672 529.1C35.672 528.148 35.896 527.294 36.344 526.538C36.792 525.773 37.4127 525.175 38.206 524.746C38.9993 524.307 39.886 524.088 40.866 524.088C41.6313 524.088 42.3313 524.219 42.966 524.48C43.6007 524.732 44.142 525.11 44.59 525.614L43.68 526.496C42.9427 525.721 42.0233 525.334 40.922 525.334C40.194 525.334 39.536 525.497 38.948 525.824C38.36 526.151 37.898 526.603 37.562 527.182C37.2353 527.751 37.072 528.391 37.072 529.1C37.072 529.809 37.2353 530.453 37.562 531.032C37.898 531.601 38.36 532.049 38.948 532.376C39.536 532.703 40.194 532.866 40.922 532.866C42.014 532.866 42.9333 532.474 43.68 531.69L44.59 532.572C44.142 533.076 43.596 533.459 42.952 533.72C42.3173 533.981 41.6173 534.112 40.852 534.112ZM48.4238 525.418H45.0638V524.2H53.1698V525.418H49.8098V534H48.4238V525.418ZM61.2466 534L59.1326 530.99C58.8713 531.009 58.6659 531.018 58.5166 531.018H56.0946V534H54.6946V524.2H58.5166C59.7859 524.2 60.7846 524.503 61.5126 525.11C62.2406 525.717 62.6046 526.552 62.6046 527.616C62.6046 528.372 62.4179 529.016 62.0446 529.548C61.6713 530.08 61.1393 530.467 60.4486 530.71L62.7726 534H61.2466ZM58.4746 529.828C59.3613 529.828 60.0379 529.637 60.5046 529.254C60.9713 528.871 61.2046 528.325 61.2046 527.616C61.2046 526.907 60.9713 526.365 60.5046 525.992C60.0379 525.609 59.3613 525.418 58.4746 525.418H56.0946V529.828H58.4746Z" fill="#565656"/>
<path d="M46.104 543.96C50.712 543.96 53.656 545.976 54.296 549.432L51.288 549.848C50.872 547.96 49.176 546.968 46.04 546.968C41.88 546.968 40.504 548.728 40.504 554.072C41.464 552.44 43.64 551.48 46.296 551.48C51 551.48 54.424 554.52 54.424 559.576C54.424 564.472 51.224 567.64 46.04 567.64C40.824 567.64 37.88 564.472 37.528 559.256C36.792 548.408 39.256 543.96 46.104 543.96ZM40.568 559.256C40.568 563.16 42.104 564.568 46.328 564.568C50.136 564.568 51.224 563.416 51.224 559.736C51.224 555.576 49.816 554.52 46.104 554.52C41.592 554.52 40.568 556.056 40.568 559.256ZM67.9165 543.96C72.5245 543.96 75.4685 545.976 76.1085 549.432L73.1005 549.848C72.6845 547.96 70.9885 546.968 67.8525 546.968C63.6925 546.968 62.3165 548.728 62.3165 554.072C63.2765 552.44 65.4525 551.48 68.1085 551.48C72.8125 551.48 76.2365 554.52 76.2365 559.576C76.2365 564.472 73.0365 567.64 67.8525 567.64C62.6365 567.64 59.6925 564.472 59.3405 559.256C58.6045 548.408 61.0685 543.96 67.9165 543.96ZM62.3805 559.256C62.3805 563.16 63.9165 564.568 68.1405 564.568C71.9485 564.568 73.0365 563.416 73.0365 559.736C73.0365 555.576 71.6285 554.52 67.9165 554.52C63.4045 554.52 62.3805 556.056 62.3805 559.256ZM81.025 567V563.16H84.865V567H81.025ZM98.354 543.96C102.962 543.96 105.906 545.976 106.546 549.432L103.538 549.848C103.122 547.96 101.426 546.968 98.29 546.968C94.13 546.968 92.754 548.728 92.754 554.072C93.714 552.44 95.89 551.48 98.546 551.48C103.25 551.48 106.674 554.52 106.674 559.576C106.674 564.472 103.474 567.64 98.29 567.64C93.074 567.64 90.13 564.472 89.778 559.256C89.042 548.408 91.506 543.96 98.354 543.96ZM92.818 559.256C92.818 563.16 94.354 564.568 98.578 564.568C102.386 564.568 103.474 563.416 103.474 559.736C103.474 555.576 102.066 554.52 98.354 554.52C93.842 554.52 92.818 556.056 92.818 559.256ZM109.863 547.48V544.6H126.663L117.031 567H113.575L121.927 547.48H109.863ZM135.021 557.912C132.077 557.912 129.869 554.904 129.869 550.872C129.869 546.872 132.045 543.832 135.021 543.832C137.997 543.832 140.173 546.84 140.173 550.84C140.173 554.872 137.997 557.912 135.021 557.912ZM144.909 560.664C144.909 556.664 147.085 553.624 150.061 553.624C153.037 553.624 155.213 556.632 155.213 560.632C155.213 564.664 153.037 567.704 150.061 567.704C147.117 567.704 144.909 564.696 144.909 560.664ZM134.381 567.64L146.701 545.24H150.061L137.741 567.64H134.381ZM147.533 560.664C147.533 563.128 148.493 564.728 150.061 564.728C151.597 564.728 152.589 563.128 152.589 560.664C152.589 558.2 151.597 556.6 150.061 556.6C148.525 556.6 147.533 558.168 147.533 560.664ZM132.493 550.872C132.493 553.336 133.453 554.936 135.021 554.936C136.557 554.936 137.549 553.336 137.549 550.872C137.549 548.408 136.557 546.808 135.021 546.808C133.485 546.808 132.493 548.376 132.493 550.872Z" fill="#202020"/>
<path d="M268 551.5V534.5C268 533.704 268.316 532.941 268.879 532.379C269.441 531.816 270.204 531.5 271 531.5C271.796 531.5 272.559 531.816 273.121 532.379C273.684 532.941 274 533.704 274 534.5V549.5M274 548.5V544.5C274 543.704 274.316 542.941 274.879 542.379C275.441 541.816 276.204 541.5 277 541.5C277.796 541.5 278.559 541.816 279.121 542.379C279.684 542.941 280 543.704 280 544.5V549.5M280 546.5C280 545.704 280.316 544.941 280.879 544.379C281.441 543.816 282.204 543.5 283 543.5C283.796 543.5 284.559 543.816 285.121 544.379C285.684 544.941 286 545.704 286 546.5V549.5" stroke="#9FE870" stroke-width="4" stroke-linecap="round" stroke-linejoin="round"/>
<path d="M286 548.5C286 547.704 286.316 546.941 286.879 546.379C287.441 545.816 288.204 545.5 289 545.5C289.796 545.5 290.559 545.816 291.121 546.379C291.684 546.941 292 547.704 292 548.5V557.5C292 560.683 290.736 563.735 288.485 565.985C286.235 568.236 283.183 569.5 280 569.5H276H276.416C274.429 569.5 272.472 569.007 270.723 568.065C268.973 567.122 267.485 565.76 266.392 564.1L266 563.5C265.376 562.542 263.186 558.724 259.428 552.044C259.045 551.363 258.943 550.56 259.143 549.804C259.343 549.049 259.83 548.402 260.5 548C261.214 547.572 262.05 547.394 262.876 547.496C263.702 547.597 264.471 547.972 265.06 548.56L268 551.5M262 531.5L260 529.5M260 539.5H258M280 531.5L282 529.5M282 537.5H284" stroke="#9FE870" stroke-width="4" stroke-linecap="round" stroke-linejoin="round"/>
</g>
<defs>
<filter id="filter0_d_1181_9076" x="441" y="0" width="335" height="129" filterUnits="userSpaceOnUse" color-interpolation-filters="sRGB">
<feFlood flood-opacity="0" result="BackgroundImageFix"/>
<feColorMatrix in="SourceAlpha" type="matrix" values="0 0 0 0 0 0 0 0 0 0 0 0 0 0 0 0 0 0 127 0" result="hardAlpha"/>
<feOffset dy="8"/>
<feGaussianBlur stdDeviation="7.5"/>
<feComposite in2="hardAlpha" operator="out"/>
<feColorMatrix type="matrix" values="0 0 0 0 0 0 0 0 0 0 0 0 0 0 0 0 0 0 0.08 0"/>
<feBlend mode="normal" in2="BackgroundImageFix" result="effect1_dropShadow_1181_9076"/>
<feBlend mode="normal" in="SourceGraphic" in2="effect1_dropShadow_1181_9076" result="shape"/>
</filter>
<filter id="filter1_d_1181_9076" x="0" y="493" width="335" height="129" filterUnits="userSpaceOnUse" color-interpolation-filters="sRGB">
<feFlood flood-opacity="0" result="BackgroundImageFix"/>
<feColorMatrix in="SourceAlpha" type="matrix" values="0 0 0 0 0 0 0 0 0 0 0 0 0 0 0 0 0 0 127 0" result="hardAlpha"/>
<feOffset dy="8"/>
<feGaussianBlur stdDeviation="7.5"/>
<feComposite in2="hardAlpha" operator="out"/>
<feColorMatrix type="matrix" values="0 0 0 0 0 0 0 0 0 0 0 0 0 0 0 0 0 0 0.08 0"/>
<feBlend mode="normal" in2="BackgroundImageFix" result="effect1_dropShadow_1181_9076"/>
<feBlend mode="normal" in="SourceGraphic" in2="effect1_dropShadow_1181_9076" result="shape"/>
</filter>
<clipPath id="clip0_1181_9076">
<rect width="462" height="326" fill="white" transform="translate(195 120)"/>
</clipPath>
</defs>
</svg>
